<?xml version="1.0" encoding="UTF-8" standalone="no"?>
<svg
   xmlns:dc="http://purl.org/dc/elements/1.1/"
   xmlns:cc="http://creativecommons.org/ns#"
   xmlns:rdf="http://www.w3.org/1999/02/22-rdf-syntax-ns#"
   xmlns:svg="http://www.w3.org/2000/svg"
   xmlns="http://www.w3.org/2000/svg"
   xmlns:sodipodi="http://sodipodi.sourceforge.net/DTD/sodipodi-0.dtd"
   xmlns:inkscape="http://www.inkscape.org/namespaces/inkscape"
   width="24"
   height="24"
   viewBox="0 0 24 24"
   version="1.1"
   id="svg6"
   sodipodi:docname="battery_alert.svg"
   inkscape:version="0.92.3 (2405546, 2018-03-11)">
  <metadata
     id="metadata12">
    <rdf:RDF>
      <cc:Work
         rdf:about="">
        <dc:format>image/svg+xml</dc:format>
        <dc:type
           rdf:resource="http://purl.org/dc/dcmitype/StillImage" />
      </cc:Work>
    </rdf:RDF>
  </metadata>
  <defs
     id="defs10" />
  <sodipodi:namedview
     pagecolor="#ffffff"
     bordercolor="#666666"
     borderopacity="1"
     objecttolerance="10"
     gridtolerance="10"
     guidetolerance="10"
     inkscape:pageopacity="0"
     inkscape:pageshadow="2"
     inkscape:window-width="2560"
     inkscape:window-height="1346"
     id="namedview8"
     showgrid="false"
     inkscape:zoom="55.625733"
     inkscape:cx="16.468921"
     inkscape:cy="7.8856119"
     inkscape:window-x="2869"
     inkscape:window-y="-11"
     inkscape:window-maximized="1"
     inkscape:current-layer="svg6" />
  <path
     d="M0 0h24v24H0z"
     fill="none"
     id="path2" />
  <path
     d="M15.67 4H14V2h-4v2H8.33C7.6 4 7 4.6 7 5.33v15.33C7 21.4 7.6 22 8.33 22h7.33c.74 0 1.34-.6 1.34-1.33V5.33C17 4.6 16.4 4 15.67 4zM13 18h-2v-2h2v2zm0-4h-2V9h2v5z"
     id="path4"
     style="fill:#333333" />
  <rect
     style="fill:#ffffff"
     id="rect8"
     width="2.213309"
     height="5.2742853"
     x="11"
     y="9" />
  <rect
     style="fill:#ffffff"
     id="rect10"
     width="2"
     height="2"
     x="11"
     y="16" />
</svg>
